<mxfile host="app.diagrams.net" modified="2024-04-24T13:20:09.398Z" agent="Mozilla/5.0 (Windows NT 10.0; Win64; x64) AppleWebKit/537.36 (KHTML, like Gecko) Chrome/124.0.0.0 Safari/537.36" etag="rRZh-HW1Z-qM4BjCt9bH" version="24.2.5" type="github">
  <diagram name="第 1 页" id="DCjY2M32DhdbJTFIdupm">
    <mxGraphModel dx="1221" dy="670" grid="1" gridSize="10" guides="1" tooltips="1" connect="1" arrows="1" fold="1" page="1" pageScale="1" pageWidth="827" pageHeight="1169" math="0" shadow="0">
      <root>
        <mxCell id="0" />
        <mxCell id="1" parent="0" />
        <mxCell id="ELv2HFd_2RZIdf7TtYIx-8" value="" style="group" vertex="1" connectable="0" parent="1">
          <mxGeometry x="97.99000000000001" y="110" width="630" height="580" as="geometry" />
        </mxCell>
        <mxCell id="WjFN8tZ_Sl9ltCgVFsNj-6" value="" style="verticalLabelPosition=top;verticalAlign=bottom;html=1;shape=mxgraph.basic.rect;fillColor2=none;strokeWidth=2;size=20;indent=5;labelPosition=center;align=center;" parent="ELv2HFd_2RZIdf7TtYIx-8" vertex="1">
          <mxGeometry x="5.009999999999991" y="128.4090909090909" width="620.9999999999999" height="309.7727272727272" as="geometry" />
        </mxCell>
        <mxCell id="WjFN8tZ_Sl9ltCgVFsNj-7" value="&lt;h1&gt;&lt;font style=&quot;font-size: 16px;&quot;&gt;服务器&lt;/font&gt;&lt;/h1&gt;" style="text;html=1;align=center;verticalAlign=middle;whiteSpace=wrap;rounded=0;strokeWidth=2;" parent="ELv2HFd_2RZIdf7TtYIx-8" vertex="1">
          <mxGeometry x="232.03131147540984" y="135" width="165.9393442622951" height="19.77272727272727" as="geometry" />
        </mxCell>
        <mxCell id="WjFN8tZ_Sl9ltCgVFsNj-8" value="&lt;h1&gt;&lt;br&gt;&lt;/h1&gt;" style="verticalLabelPosition=middle;verticalAlign=middle;html=1;shape=mxgraph.basic.rect;fillColor2=none;strokeWidth=2;size=20;indent=5;labelPosition=center;align=center;" parent="ELv2HFd_2RZIdf7TtYIx-8" vertex="1">
          <mxGeometry x="45.72999999999999" y="167.95" width="559.28" height="62.05" as="geometry" />
        </mxCell>
        <mxCell id="WjFN8tZ_Sl9ltCgVFsNj-9" value="&lt;font style=&quot;font-size: 15px;&quot; face=&quot;Verdana&quot;&gt;&lt;i style=&quot;&quot;&gt;视&lt;/i&gt;&lt;/font&gt;&lt;div style=&quot;font-size: 15px;&quot;&gt;&lt;font style=&quot;font-size: 15px;&quot; face=&quot;eEsPGfAhy_EH3d2n-p2c&quot;&gt;&lt;i&gt;图&lt;/i&gt;&lt;/font&gt;&lt;/div&gt;&lt;div style=&quot;font-size: 15px;&quot;&gt;&lt;font style=&quot;font-size: 15px;&quot; face=&quot;eEsPGfAhy_EH3d2n-p2c&quot;&gt;&lt;i style=&quot;&quot;&gt;层&lt;/i&gt;&lt;/font&gt;&lt;/div&gt;" style="text;html=1;align=center;verticalAlign=middle;whiteSpace=wrap;rounded=0;horizontal=1;fontSize=17;strokeWidth=2;" parent="ELv2HFd_2RZIdf7TtYIx-8" vertex="1">
          <mxGeometry x="46.74934426229507" y="169.3190909090909" width="50.90163934426229" height="59.31818181818181" as="geometry" />
        </mxCell>
        <mxCell id="WjFN8tZ_Sl9ltCgVFsNj-10" value="HTML" style="rounded=0;whiteSpace=wrap;html=1;strokeWidth=2;" parent="ELv2HFd_2RZIdf7TtYIx-8" vertex="1">
          <mxGeometry x="107.83131147540985" y="177.84090909090907" width="101.80327868852459" height="32.95454545454545" as="geometry" />
        </mxCell>
        <mxCell id="WjFN8tZ_Sl9ltCgVFsNj-11" value="&lt;p class=&quot;MsoNormal&quot;&gt;&lt;span style=&quot;mso-spacerun:&#39;yes&#39;;font-family:宋体;mso-ascii-font-family:Calibri;&lt;br/&gt;mso-hansi-font-family:Calibri;mso-bidi-font-family:&#39;Times New Roman&#39;;font-size:12.0000pt;&lt;br/&gt;mso-font-kerning:1.0000pt;&quot;&gt;&lt;font face=&quot;Calibri&quot;&gt;Semantic UI&lt;/font&gt;&lt;/span&gt;&lt;/p&gt;" style="rounded=0;whiteSpace=wrap;html=1;strokeWidth=2;" parent="ELv2HFd_2RZIdf7TtYIx-8" vertex="1">
          <mxGeometry x="232.03131147540984" y="177.84090909090907" width="101.80327868852459" height="32.95454545454545" as="geometry" />
        </mxCell>
        <mxCell id="WjFN8tZ_Sl9ltCgVFsNj-12" value="&lt;p class=&quot;MsoNormal&quot;&gt;&lt;span style=&quot;mso-spacerun:&#39;yes&#39;;font-family:宋体;mso-ascii-font-family:Calibri;&lt;br/&gt;mso-hansi-font-family:Calibri;mso-bidi-font-family:&#39;Times New Roman&#39;;font-size:12.0000pt;&lt;br/&gt;mso-font-kerning:1.0000pt;&quot;&gt;&lt;font face=&quot;Calibri&quot;&gt;JQuery&lt;/font&gt;&lt;/span&gt;&lt;/p&gt;" style="rounded=0;whiteSpace=wrap;html=1;strokeWidth=2;" parent="ELv2HFd_2RZIdf7TtYIx-8" vertex="1">
          <mxGeometry x="352.1591803278688" y="177.84090909090907" width="101.80327868852459" height="32.95454545454545" as="geometry" />
        </mxCell>
        <mxCell id="WjFN8tZ_Sl9ltCgVFsNj-13" value="&lt;p class=&quot;MsoNormal&quot;&gt;&lt;span style=&quot;mso-spacerun:&#39;yes&#39;;font-family:宋体;mso-ascii-font-family:Calibri;&lt;br/&gt;mso-hansi-font-family:Calibri;mso-bidi-font-family:&#39;Times New Roman&#39;;font-size:12.0000pt;&lt;br/&gt;mso-font-kerning:1.0000pt;&quot;&gt;&lt;font face=&quot;Calibri&quot;&gt;Thymeleaf&lt;/font&gt;&lt;/span&gt;&lt;/p&gt;" style="rounded=0;whiteSpace=wrap;html=1;strokeWidth=2;" parent="ELv2HFd_2RZIdf7TtYIx-8" vertex="1">
          <mxGeometry x="474.32311475409824" y="177.84090909090907" width="101.80327868852459" height="32.95454545454545" as="geometry" />
        </mxCell>
        <mxCell id="WjFN8tZ_Sl9ltCgVFsNj-14" value="&lt;h1&gt;&lt;br&gt;&lt;/h1&gt;" style="verticalLabelPosition=middle;verticalAlign=middle;html=1;shape=mxgraph.basic.rect;fillColor2=none;strokeWidth=2;size=20;indent=5;labelPosition=center;align=center;" parent="ELv2HFd_2RZIdf7TtYIx-8" vertex="1">
          <mxGeometry x="45.72999999999999" y="256.93" width="559.28" height="63.07" as="geometry" />
        </mxCell>
        <mxCell id="WjFN8tZ_Sl9ltCgVFsNj-15" value="&lt;font style=&quot;font-size: 15px;&quot; face=&quot;Verdana&quot;&gt;&lt;i&gt;服&lt;/i&gt;&lt;/font&gt;&lt;div style=&quot;font-size: 15px;&quot;&gt;&lt;font style=&quot;font-size: 15px;&quot; face=&quot;Verdana&quot;&gt;&lt;i&gt;务&lt;/i&gt;&lt;/font&gt;&lt;/div&gt;&lt;div style=&quot;font-size: 15px;&quot;&gt;&lt;font style=&quot;font-size: 15px;&quot; face=&quot;Verdana&quot;&gt;&lt;i&gt;层&lt;/i&gt;&lt;/font&gt;&lt;/div&gt;" style="text;html=1;align=center;verticalAlign=middle;whiteSpace=wrap;rounded=0;horizontal=1;fontSize=17;strokeWidth=2;" parent="ELv2HFd_2RZIdf7TtYIx-8" vertex="1">
          <mxGeometry x="46.74934426229507" y="256.92636363636365" width="50.90163934426229" height="59.31818181818181" as="geometry" />
        </mxCell>
        <mxCell id="WjFN8tZ_Sl9ltCgVFsNj-16" value="博客管理" style="rounded=0;whiteSpace=wrap;html=1;strokeWidth=2;" parent="ELv2HFd_2RZIdf7TtYIx-8" vertex="1">
          <mxGeometry x="107.83131147540985" y="266.8181818181818" width="101.80327868852459" height="32.95454545454545" as="geometry" />
        </mxCell>
        <mxCell id="WjFN8tZ_Sl9ltCgVFsNj-17" value="分类管理" style="rounded=0;whiteSpace=wrap;html=1;strokeWidth=2;" parent="ELv2HFd_2RZIdf7TtYIx-8" vertex="1">
          <mxGeometry x="287.0050819672131" y="266.8181818181818" width="101.80327868852459" height="32.95454545454545" as="geometry" />
        </mxCell>
        <mxCell id="WjFN8tZ_Sl9ltCgVFsNj-18" value="标签管理" style="rounded=0;whiteSpace=wrap;html=1;strokeWidth=2;" parent="ELv2HFd_2RZIdf7TtYIx-8" vertex="1">
          <mxGeometry x="453.9624590163934" y="266.8181818181818" width="101.80327868852459" height="32.95454545454545" as="geometry" />
        </mxCell>
        <mxCell id="WjFN8tZ_Sl9ltCgVFsNj-19" value="&lt;h1&gt;&lt;br&gt;&lt;/h1&gt;" style="verticalLabelPosition=middle;verticalAlign=middle;html=1;shape=mxgraph.basic.rect;fillColor2=none;strokeWidth=2;size=20;indent=5;labelPosition=center;align=center;" parent="ELv2HFd_2RZIdf7TtYIx-8" vertex="1">
          <mxGeometry x="46.75" y="355.8" width="548.26" height="64.2" as="geometry" />
        </mxCell>
        <mxCell id="WjFN8tZ_Sl9ltCgVFsNj-20" value="&lt;font style=&quot;font-size: 15px;&quot; face=&quot;Verdana&quot;&gt;&lt;i&gt;持&lt;/i&gt;&lt;/font&gt;&lt;div style=&quot;font-size: 15px;&quot;&gt;&lt;font style=&quot;font-size: 15px;&quot; face=&quot;Verdana&quot;&gt;&lt;i&gt;久&lt;/i&gt;&lt;/font&gt;&lt;/div&gt;&lt;div style=&quot;font-size: 15px;&quot;&gt;&lt;font style=&quot;font-size: 15px;&quot; face=&quot;Verdana&quot;&gt;&lt;i&gt;层&lt;/i&gt;&lt;/font&gt;&lt;/div&gt;" style="text;html=1;align=center;verticalAlign=middle;whiteSpace=wrap;rounded=0;horizontal=1;fontSize=17;strokeWidth=2;" parent="ELv2HFd_2RZIdf7TtYIx-8" vertex="1">
          <mxGeometry x="46.74934426229507" y="358.24" width="50.90163934426229" height="59.31818181818181" as="geometry" />
        </mxCell>
        <mxCell id="WjFN8tZ_Sl9ltCgVFsNj-21" value="MyBatis" style="rounded=0;whiteSpace=wrap;html=1;strokeWidth=2;" parent="ELv2HFd_2RZIdf7TtYIx-8" vertex="1">
          <mxGeometry x="168.91327868852454" y="365.68181818181813" width="101.80327868852459" height="32.95454545454545" as="geometry" />
        </mxCell>
        <mxCell id="WjFN8tZ_Sl9ltCgVFsNj-23" value="Redis Template" style="rounded=0;whiteSpace=wrap;html=1;strokeWidth=2;" parent="ELv2HFd_2RZIdf7TtYIx-8" vertex="1">
          <mxGeometry x="372.5198360655737" y="365.68181818181813" width="101.80327868852459" height="32.95454545454545" as="geometry" />
        </mxCell>
        <mxCell id="WjFN8tZ_Sl9ltCgVFsNj-26" value="&lt;h1 style=&quot;font-size: 16px;&quot;&gt;&lt;font style=&quot;font-size: 16px;&quot;&gt;数据库&lt;/font&gt;&lt;/h1&gt;&lt;div style=&quot;font-size: 16px;&quot;&gt;&lt;font style=&quot;font-size: 16px;&quot;&gt;MySQL、Redis&lt;/font&gt;&lt;/div&gt;" style="verticalLabelPosition=middle;verticalAlign=middle;html=1;shape=mxgraph.basic.rect;fillColor2=none;strokeWidth=2;size=20;indent=5;labelPosition=center;align=center;" parent="ELv2HFd_2RZIdf7TtYIx-8" vertex="1">
          <mxGeometry y="510" width="630" height="70" as="geometry" />
        </mxCell>
        <mxCell id="WjFN8tZ_Sl9ltCgVFsNj-3" value="&lt;h1&gt;&lt;font style=&quot;font-size: 16px;&quot;&gt;客户端浏览器&lt;/font&gt;&lt;/h1&gt;" style="verticalLabelPosition=middle;verticalAlign=middle;html=1;shape=mxgraph.basic.rect;fillColor2=none;strokeWidth=2;size=20;indent=5;labelPosition=center;align=center;" parent="ELv2HFd_2RZIdf7TtYIx-8" vertex="1">
          <mxGeometry x="4.499999999999986" width="620.9999999999999" height="59.31818181818181" as="geometry" />
        </mxCell>
        <mxCell id="ELv2HFd_2RZIdf7TtYIx-1" value="" style="html=1;shadow=0;dashed=0;align=center;verticalAlign=middle;shape=mxgraph.arrows2.twoWayArrow;dy=0.65;dx=22;rotation=90;" vertex="1" parent="ELv2HFd_2RZIdf7TtYIx-8">
          <mxGeometry x="285.74" y="70" width="58.52" height="43.5" as="geometry" />
        </mxCell>
        <mxCell id="ELv2HFd_2RZIdf7TtYIx-5" value="" style="html=1;shadow=0;dashed=0;align=center;verticalAlign=middle;shape=mxgraph.arrows2.twoWayArrow;dy=0.65;dx=22;rotation=90;" vertex="1" parent="ELv2HFd_2RZIdf7TtYIx-8">
          <mxGeometry x="285.74" y="450" width="58.52" height="43.5" as="geometry" />
        </mxCell>
        <mxCell id="ELv2HFd_2RZIdf7TtYIx-6" value="HTTP/HTTPS请求" style="text;html=1;align=center;verticalAlign=middle;whiteSpace=wrap;rounded=0;" vertex="1" parent="ELv2HFd_2RZIdf7TtYIx-8">
          <mxGeometry x="362.01" y="76.75" width="60" height="30" as="geometry" />
        </mxCell>
        <mxCell id="ELv2HFd_2RZIdf7TtYIx-7" value="Database Driver" style="text;html=1;align=center;verticalAlign=middle;whiteSpace=wrap;rounded=0;" vertex="1" parent="ELv2HFd_2RZIdf7TtYIx-8">
          <mxGeometry x="352.15999999999997" y="463.5" width="60" height="30" as="geometry" />
        </mxCell>
      </root>
    </mxGraphModel>
  </diagram>
</mxfile>
